# xmcd CD database file
#
# Track frame offsets:
#	150
#	18593
#	37046
#	53974
#	69601
#	86692
#	99771
#	121111
#	138552
#	155210
#	170289
#	186797
#	204646
#
# Disc length: 3008 seconds
#
# Revision: 0
# Processed by: cddbd v1.5.2PL0 Copyright (c) Steve Scherf et al.
# Submitted via: CDex 1.51
#
DISCID=b40bbe0d
DTITLE=Dean Brody - Gypsy Road
DYEAR=2015
DGENRE=Country
TTITLE0=Upside Down
TTITLE1=Hillbilly
TTITLE2=Monterey
TTITLE3=Bring Down the House
TTITLE4=Sweet Lola
TTITLE5=Love Would Be Enough
TTITLE6=Footprints of a Giant
TTITLE7=Castaways
TTITLE8=Everything's Better
TTITLE9=Like I Know This Town
TTITLE10=As Country As She Gets
TTITLE11=Old Friend (Original Demo)
TTITLE12=Trail in Life (Acoustic Version)
EXTD=YEAR: 2015
EXTT0=
EXTT1=
EXTT2=
EXTT3=
EXTT4=
EXTT5=
EXTT6=
EXTT7=
EXTT8=
EXTT9=
EXTT10=
EXTT11=
EXTT12=
PLAYORDER=
